<svg data-v-423bf9ae="" xmlns="http://www.w3.org/2000/svg" viewBox="0 0 226 90" class="iconLeft"><!----><!----><!----><g data-v-423bf9ae="" id="933cbebd-cb4c-4b6b-8717-73d59639c85e" fill="black" transform="matrix(5.150214760914251,0,0,5.150214760914251,76.47236152459308,-1.4291849051769603)"><path d="M3.07 12.75L3.07 5.18L3.07 5.18Q3.07 4.75 2.88 4.51L2.88 4.51L2.88 4.51Q2.69 4.27 2.31 4.27L2.31 4.27L1.58 4.27L1.58 13.66L2.31 13.66L2.31 13.66Q3.07 13.66 3.07 12.75L3.07 12.75ZM2.31 14.71L0.52 14.71L0.52 3.19L2.31 3.19L2.31 3.19Q3.23 3.19 3.68 3.72L3.68 3.72L3.68 3.72Q4.13 4.24 4.13 5.17L4.13 5.17L4.13 12.75L4.13 12.75Q4.13 14.71 2.31 14.71L2.31 14.71ZM5.77 6.38L5.21 6.38L5.00 4.44L5.00 3.19L5.98 3.19L5.98 4.44L5.77 6.38ZM10.12 14.71L9.06 14.71L8.81 12.78L7.08 12.78L6.83 14.71L5.80 14.71L7.38 3.19L8.62 3.19L10.12 14.71ZM7.21 11.80L8.68 11.80L8.68 11.80Q8.50 10.32 8.32 8.87L8.32 8.87L8.32 8.87Q8.13 7.42 7.97 5.89L7.97 5.89L7.97 5.89Q7.78 7.42 7.60 8.87L7.60 8.87L7.60 8.87Q7.41 10.32 7.21 11.80L7.21 11.80ZM12.98 13.09L12.98 11.17L13.87 11.17L13.87 13.10L13.87 13.10Q13.87 13.90 13.50 14.37L13.50 14.37L13.50 14.37Q13.13 14.84 12.33 14.84L12.33 14.84L12.33 14.84Q11.54 14.84 11.14 14.36L11.14 14.36L11.14 14.36Q10.75 13.87 10.75 13.08L10.75 13.08L10.75 7.70L10.75 7.70Q10.75 6.90 11.14 6.40L11.14 6.40L11.14 6.40Q11.54 5.91 12.33 5.91L12.33 5.91L12.33 5.91Q13.13 5.91 13.49 6.40L13.49 6.40L13.49 6.40Q13.85 6.89 13.85 7.69L13.85 7.69L13.85 9.56L12.98 9.56L12.98 7.67L12.98 7.67Q12.98 6.90 12.33 6.90L12.33 6.90L12.33 6.90Q12.01 6.90 11.85 7.11L11.85 7.11L11.85 7.11Q11.69 7.32 11.69 7.69L11.69 7.69L11.69 13.08L11.69 13.08Q11.69 13.86 12.33 13.86L12.33 13.86L12.33 13.86Q12.98 13.86 12.98 13.09L12.98 13.09ZM16.94 13.09L16.94 11.17L17.84 11.17L17.84 13.10L17.84 13.10Q17.84 13.90 17.46 14.37L17.46 14.37L17.46 14.37Q17.09 14.84 16.30 14.84L16.30 14.84L16.30 14.84Q15.50 14.84 15.11 14.36L15.11 14.36L15.11 14.36Q14.71 13.87 14.71 13.08L14.71 13.08L14.71 7.70L14.71 7.70Q14.71 6.90 15.11 6.40L15.11 6.40L15.11 6.40Q15.50 5.91 16.30 5.91L16.30 5.91L16.30 5.91Q17.09 5.91 17.45 6.40L17.45 6.40L17.45 6.40Q17.81 6.89 17.81 7.69L17.81 7.69L17.81 9.56L16.94 9.56L16.94 7.67L16.94 7.67Q16.94 6.90 16.30 6.90L16.30 6.90L16.30 6.90Q15.97 6.90 15.81 7.11L15.81 7.11L15.81 7.11Q15.65 7.32 15.65 7.69L15.65 7.69L15.65 13.08L15.65 13.08Q15.65 13.86 16.30 13.86L16.30 13.86L16.30 13.86Q16.94 13.86 16.94 13.09L16.94 13.09ZM18.68 13.12L18.68 7.64L18.68 7.64Q18.68 6.80 19.07 6.36L19.07 6.36L19.07 6.36Q19.46 5.91 20.27 5.91L20.27 5.91L20.27 5.91Q21.07 5.91 21.47 6.36L21.47 6.36L21.47 6.36Q21.87 6.80 21.87 7.64L21.87 7.64L21.87 13.12L21.87 13.12Q21.87 13.96 21.47 14.40L21.47 14.40L21.47 14.40Q21.07 14.84 20.27 14.84L20.27 14.84L20.27 14.84Q19.46 14.84 19.07 14.40L19.07 14.40L19.07 14.40Q18.68 13.96 18.68 13.12L18.68 13.12ZM20.93 13.09L20.93 7.67L20.93 7.67Q20.93 7.31 20.80 7.11L20.80 7.11L20.80 7.11Q20.66 6.90 20.27 6.90L20.27 6.90L20.27 6.90Q19.88 6.90 19.75 7.11L19.75 7.11L19.75 7.11Q19.61 7.31 19.61 7.67L19.61 7.67L19.61 13.12L19.61 13.12Q19.61 13.48 19.75 13.67L19.75 13.67L19.75 13.67Q19.88 13.86 20.27 13.86L20.27 13.86L20.27 13.86Q20.66 13.86 20.80 13.66L20.80 13.66L20.80 13.66Q20.93 13.47 20.93 13.09L20.93 13.09ZM23.79 14.71L22.82 14.71L22.82 6.05L23.63 6.05L23.63 6.05Q23.67 6.37 23.67 6.68L23.67 6.68L23.67 6.68Q23.86 6.30 24.11 6.13L24.11 6.13L24.11 6.13Q24.37 5.96 24.72 5.96L24.72 5.96L24.72 5.96Q24.91 5.96 25.02 6.02L25.02 6.02L25.02 7.10L25.02 7.10Q24.95 7.04 24.82 7.02L24.82 7.02L24.82 7.02Q24.70 7 24.58 7L24.58 7L24.58 7Q24.36 7 24.14 7.11L24.14 7.11L24.14 7.11Q23.93 7.21 23.79 7.52L23.79 7.52L23.79 14.71ZM27.96 13.22L27.96 7.46L27.96 7.46Q27.72 6.89 27.20 6.89L27.20 6.89L27.20 6.89Q26.88 6.89 26.74 7.05L26.74 7.05L26.74 7.05Q26.60 7.21 26.60 7.60L26.60 7.60L26.60 13.06L26.60 13.06Q26.60 13.47 26.74 13.63L26.74 13.63L26.74 13.63Q26.88 13.79 27.20 13.79L27.20 13.79L27.20 13.79Q27.72 13.79 27.96 13.22L27.96 13.22ZM28.91 14.71L28.10 14.71L28.10 14.71Q28.08 14.56 28.08 14.40L28.08 14.40L28.08 14.40Q28.07 14.24 28.07 14.07L28.07 14.07L28.07 14.07Q27.92 14.42 27.63 14.62L27.63 14.62L27.63 14.62Q27.34 14.81 26.87 14.81L26.87 14.81L26.87 14.81Q25.63 14.81 25.63 13.19L25.63 13.19L25.63 7.50L25.63 7.50Q25.63 6.65 25.93 6.28L25.93 6.28L25.93 6.28Q26.24 5.91 26.91 5.91L26.91 5.91L26.91 5.91Q27.24 5.91 27.52 6.06L27.52 6.06L27.52 6.06Q27.79 6.22 27.96 6.47L27.96 6.47L27.96 3.19L28.91 3.19L28.91 14.71Z"></path></g><!----><g data-v-423bf9ae="" id="73ecef25-3d9f-4624-a9ab-cb446901f796" transform="matrix(1.043501521666902,0,0,1.043501521666902,0.4247801544818266,0)" stroke="none" fill="black"><path d="M51.165 28.83c2.642-2.677 3.981-6.383 3.981-11.082C55.146 6.738 45.961 0 40.96 0c-2.536 0-4.307 1.686-4.307 4.099 0 .152.011.363.027.621.066 1.032.189 2.953-.972 4.191-1.235 1.317-3.652 1.594-5.462 1.594h-18.81C3.045 10.505.068 16.551.068 21.729c0 3.51 1.135 6.36 3.274 8.453-.062.138-.124.272-.185.412C-2.558 43.946.104 61.74 6.208 68.139c4.683 4.908 3.48 15.277 3.468 15.378a2.423 2.423 0 0 0 4.806.599c.064-.518 1.505-12.743-4.77-19.32-4.389-4.601-7.206-19.975-2.23-31.979 2.372.961 5.274 1.466 8.657 1.466h14.107c5.687 0 12.146-.314 16.941-2.64 4.355 8.421 4.735 18.989 4.641 23.854-.003.182-.006.317-.006.402 0 .24-.03.388-.053.457-.079.029-.261.072-.565.072h-2.207c-.086-.005-.167-.014-.259-.014h-6.942c-3.785 0-3.259-2.757-3.259-3.258 0-1.799-5.037.457-5.037 5.038s3.715 5.208 8.296 5.208h3.621v7.03c0 1.492 0 3.184-4.705 3.184-1.926 0-2.728-.023-3.048-.039a2.42 2.42 0 0 0-1.068-.011A2.445 2.445 0 0 0 34.68 76.2l.004.04c.004 2.874.006 6.948.002 7.478a2.42 2.42 0 0 0 4.699.917c.134-.372.148-.415.145-6.178.359.002.754.004 1.183.004 6.247 0 9.548-2.776 9.548-8.027V61.27h.944c3.318 0 5.462-2.109 5.462-5.372 0-.065.002-.168.005-.308.104-5.398-.353-17.211-5.507-26.76z"></path></g><!----></svg>