<svg data-v-423bf9ae="" xmlns="http://www.w3.org/2000/svg" viewBox="0 0 39.433650121701504 60" class="icon"><!----><!----><!----><!----><g data-v-423bf9ae="" id="47a19aea-5550-4db0-b6d5-754053c989c9" transform="matrix(0.695667681111268,0,0,0.695667681111268,0.0002834957541999472,0)" stroke="none" fill="white"><path d="M51.165 28.83c2.642-2.677 3.981-6.383 3.981-11.082C55.146 6.738 45.961 0 40.96 0c-2.536 0-4.307 1.686-4.307 4.099 0 .152.011.363.027.621.066 1.032.189 2.953-.972 4.191-1.235 1.317-3.652 1.594-5.462 1.594h-18.81C3.045 10.505.068 16.551.068 21.729c0 3.51 1.135 6.36 3.274 8.453-.062.138-.124.272-.185.412C-2.558 43.946.104 61.74 6.208 68.139c4.683 4.908 3.48 15.277 3.468 15.378a2.423 2.423 0 0 0 4.806.599c.064-.518 1.505-12.743-4.77-19.32-4.389-4.601-7.206-19.975-2.23-31.979 2.372.961 5.274 1.466 8.657 1.466h14.107c5.687 0 12.146-.314 16.941-2.64 4.355 8.421 4.735 18.989 4.641 23.854-.003.182-.006.317-.006.402 0 .24-.03.388-.053.457-.079.029-.261.072-.565.072h-2.207c-.086-.005-.167-.014-.259-.014h-6.942c-3.785 0-3.259-2.757-3.259-3.258 0-1.799-5.037.457-5.037 5.038s3.715 5.208 8.296 5.208h3.621v7.03c0 1.492 0 3.184-4.705 3.184-1.926 0-2.728-.023-3.048-.039a2.42 2.42 0 0 0-1.068-.011A2.445 2.445 0 0 0 34.68 76.2l.004.04c.004 2.874.006 6.948.002 7.478a2.42 2.42 0 0 0 4.699.917c.134-.372.148-.415.145-6.178.359.002.754.004 1.183.004 6.247 0 9.548-2.776 9.548-8.027V61.27h.944c3.318 0 5.462-2.109 5.462-5.372 0-.065.002-.168.005-.308.104-5.398-.353-17.211-5.507-26.76z"></path></g><!----></svg>